HIERARCHY
ROOT Hips
{
	OFFSET 0.000000 0.000000 0.000000
	CHANNELS 6 Xposition Yposition Zposition Xrotation Yrotation Zrotation
	JOINT LeftUpLeg_virtual
	{
		OFFSET 0.000000 0.000000 0.000000
		CHANNELS 3 Xrotation Yrotation Zrotation
		JOINT LeftUpLeg
		{
			OFFSET 15.427100 -6.655098 0.678600
			CHANNELS 3 Xrotation Yrotation Zrotation
			JOINT LeftLeg
			{
				OFFSET 4.081073 -39.591068 13.024000
				CHANNELS 3 Xrotation Yrotation Zrotation
				JOINT LeftFoot
				{
					OFFSET -4.081074 -37.707932 -15.979700
					CHANNELS 3 Xrotation Yrotation Zrotation
					JOINT LeftToeBase
					{
						OFFSET 5.346399 -15.068900 20.645000
						CHANNELS 3 Xrotation Yrotation Zrotation
						JOINT LeftToe_End
						{
							OFFSET 2.754700 0.931300 11.300900
							CHANNELS 3 Xrotation Yrotation Zrotation
							End Site
							{
								OFFSET 0 0 0
							}
						}
					}
				}
			}
		}
	}
	JOINT RightUpLeg_virtual
	{
		OFFSET 0.000000 0.000000 0.000000
		CHANNELS 3 Xrotation Yrotation Zrotation
		JOINT RightUpLeg
		{
			OFFSET -15.569500 -6.655098 0.678600
			CHANNELS 3 Xrotation Yrotation Zrotation
			JOINT RightLeg
			{
				OFFSET -4.081825 -39.591045 13.023800
				CHANNELS 3 Xrotation Yrotation Zrotation
				JOINT RightFoot
				{
					OFFSET 4.081824 -37.707954 -15.979600
					CHANNELS 3 Xrotation Yrotation Zrotation
					JOINT RightToeBase
					{
						OFFSET -5.346400 -15.068900 20.645000
						CHANNELS 3 Xrotation Yrotation Zrotation
						JOINT RightToe_End
						{
							OFFSET -2.754700 0.931300 11.300900
							CHANNELS 3 Xrotation Yrotation Zrotation
							End Site
							{
								OFFSET 0 0 0
							}
						}
					}
				}
			}
		}
	}
	JOINT Spine_virtual
	{
		OFFSET 0.000000 0.000000 0.000000
		CHANNELS 3 Xrotation Yrotation Zrotation
		JOINT Spine
		{
			OFFSET -0.279200 12.230698 -2.892100
			CHANNELS 3 Xrotation Yrotation Zrotation
			JOINT Spine1
			{
				OFFSET -0.232667 10.192268 -1.242267
				CHANNELS 3 Xrotation Yrotation Zrotation
				JOINT Spine1_split
				{
					OFFSET -0.232667 10.192268 -1.242267
					CHANNELS 3 Xrotation Yrotation Zrotation
					JOINT Spine2
					{
						OFFSET -0.232667 10.192268 -1.242267
						CHANNELS 3 Xrotation Yrotation Zrotation
						JOINT Neck_virtual
						{
							OFFSET 0.000000 0.000000 0.000000
							CHANNELS 3 Xrotation Yrotation Zrotation
							JOINT Neck
							{
								OFFSET -0.418800 17.814194 8.416900
								CHANNELS 3 Xrotation Yrotation Zrotation
								JOINT Head
								{
									OFFSET 0.000000 7.031097 3.806800
									CHANNELS 3 Xrotation Yrotation Zrotation
									JOINT HeadTop_End
									{
										OFFSET 0.000000 24.646606 12.978600
										CHANNELS 3 Xrotation Yrotation Zrotation
										End Site
										{
											OFFSET 0 0 0
										}
									}
								}
							}
						}
						JOINT LeftShoulder_virtual
						{
							OFFSET 0.000000 0.000000 0.000000
							CHANNELS 3 Xrotation Yrotation Zrotation
							JOINT LeftShoulder
							{
								OFFSET 8.476499 7.247704 -3.868750
								CHANNELS 3 Xrotation Yrotation Zrotation
								JOINT LeftShoulder_split
								{
									OFFSET 8.476499 7.247704 -3.868750
									CHANNELS 3 Xrotation Yrotation Zrotation
									JOINT LeftArm
									{
										OFFSET 9.308998 -2.777710 0.208600
										CHANNELS 3 Xrotation Yrotation Zrotation
										JOINT LeftForeArm
										{
											OFFSET 29.972298 0.000000 0.000000
											CHANNELS 3 Xrotation Yrotation Zrotation
											JOINT LeftHand
											{
												OFFSET 26.026505 0.000000 0.000000
												CHANNELS 3 Xrotation Yrotation Zrotation
												End Site
												{
													OFFSET 0 0 0
												}
											}
										}
									}
								}
							}
						}
						JOINT RightShoulder_virtual
						{
							OFFSET 0.000000 0.000000 0.000000
							CHANNELS 3 Xrotation Yrotation Zrotation
							JOINT RightShoulder
							{
								OFFSET -7.570500 7.247704 -3.868750
								CHANNELS 3 Xrotation Yrotation Zrotation
								JOINT RightShoulder_split
								{
									OFFSET -7.570500 7.247704 -3.868750
									CHANNELS 3 Xrotation Yrotation Zrotation
									JOINT RightArm
									{
										OFFSET -9.308998 -2.777710 0.208500
										CHANNELS 3 Xrotation Yrotation Zrotation
										JOINT RightForeArm
										{
											OFFSET -29.972300 0.000000 0.000000
											CHANNELS 3 Xrotation Yrotation Zrotation
											JOINT RightHand
											{
												OFFSET -26.026505 0.000000 0.000000
												CHANNELS 3 Xrotation Yrotation Zrotation
												End Site
												{
													OFFSET 0 0 0
												}
											}
										}
									}
								}
							}
						}
					}
				}
			}
		}
	}
}
MOTION
Frames: 4
Frame Time: 0.03333333
1.247075 72.092819 1.296940 0.000000 0.000000 0.000000 8.122249 1.210066 -0.951933 16.310644 6.958890 5.448168 36.091129 -7.175903 17.014886 -22.694803 5.797698 -6.794798 -42.762578 -0.875611 -5.774595 0.000000 0.000000 0.000000 10.952061 7.057438 -2.087599 -53.143865 0.635306 -4.071849 63.875991 -1.880273 0.613876 -8.281762 3.870884 -12.862383 -0.268281 1.592529 -1.245101 0.000000 0.000000 0.000000 7.479285 2.264119 -1.398657 1.090634 -4.900916 2.562762 2.551970 -2.389091 2.378495 0.738363 -1.627426 -0.269541 0.000000 0.000000 0.000000 2.506386 -2.667603 2.862737 -5.467617 2.064226 -1.880787 -16.937018 -9.172730 7.754279 0.000000 0.000000 0.000000 2.773738 -2.618010 1.692504 -0.380347 1.743598 -2.471329 -3.657962 2.886334 -2.554375 -17.449077 7.247621 -60.124318 -173.973661 -72.626317 -171.615620 0.000000 0.000000 0.000000 4.736314 -1.687217 2.716413 0.673602 -8.939203 15.776086 0.133754 6.955391 0.076035 -27.364224 8.986743 55.825004 -174.152516 56.209315 173.300177 0.000000 0.000000 0.000000 
0.411850 74.199425 0.433212 0.000000 0.000000 0.000000 8.629658 2.152947 -1.074677 14.468584 5.322379 5.568748 36.831105 -5.142040 15.910432 -14.106925 6.237146 -6.605474 -38.108894 0.869738 -8.563815 0.000000 0.000000 0.000000 10.781734 5.967031 -2.075204 -50.943949 0.547546 -4.951141 61.112619 -2.045972 0.783535 -7.653063 4.235758 -11.755597 -0.423345 1.734567 -0.946357 0.000000 0.000000 0.000000 7.870475 1.667460 -1.457662 0.977760 -4.665478 3.294119 2.393796 -2.382264 2.081185 0.476835 -1.046650 -0.868537 0.000000 0.000000 0.000000 2.694431 -2.551537 2.492630 -4.922342 2.115570 -2.116336 -16.284269 -8.889653 8.098715 0.000000 0.000000 0.000000 2.937654 -2.599856 1.542990 -0.359028 0.652147 -1.872659 -3.407405 1.402123 -1.566119 -21.390491 5.779315 -59.697452 -173.287391 -73.822693 -170.897494 0.000000 0.000000 0.000000 4.862381 -1.612865 2.476519 0.718400 -8.554442 15.324286 -0.956983 6.828344 -0.869319 -31.173776 10.681685 55.368327 -175.019977 54.561778 174.073532 0.000000 0.000000 0.000000 
0.058392 77.986610 -0.953514 0.000000 0.000000 0.000000 8.892727 3.259439 -1.858928 9.207845 5.184744 6.795436 38.086754 -2.025770 13.177815 2.475826 6.284765 -4.350348 -23.372708 1.285878 -11.561076 0.000000 0.000000 0.000000 10.642732 4.929549 -2.638327 -46.272868 1.537872 -5.217374 53.363817 -1.475052 0.583093 -4.137496 4.546085 -10.175310 -1.439771 1.774165 -0.394746 0.000000 0.000000 0.000000 8.231341 1.318635 -1.752841 1.345045 -3.793232 4.419354 2.238483 -2.160678 1.450472 0.443616 -0.285612 -1.015878 0.000000 0.000000 0.000000 2.727496 -2.255797 1.764131 -4.158366 1.995436 -2.261274 -14.816009 -8.555528 8.434067 0.000000 0.000000 0.000000 3.090705 -2.304951 1.145213 -0.282879 -1.212479 -1.224967 -2.542145 0.643255 -0.976236 -27.965919 2.087217 -58.367040 -171.598626 -76.732162 -169.303697 0.000000 0.000000 0.000000 4.887430 -1.432992 1.881331 0.763475 -8.043191 14.112285 -1.078901 5.442327 -0.818005 -38.447992 13.748819 54.678017 -175.311722 55.551814 174.351357 0.000000 0.000000 0.000000 
0.329682 82.494751 -2.430008 0.000000 0.000000 0.000000 8.889100 3.503700 -3.186850 1.657950 5.538472 9.095177 40.814803 1.143562 10.123890 22.424227 6.442865 -1.266198 -5.667381 0.200606 -13.494031 0.000000 0.000000 0.000000 10.367799 4.611118 -3.834351 -39.736842 3.166203 -4.583611 43.306019 -0.643828 0.718833 2.302324 4.600346 -8.243883 -5.670248 1.543297 0.261412 0.000000 0.000000 0.000000 8.297211 1.479379 -2.349567 2.214704 -2.506458 5.646438 2.253971 -1.760364 0.736986 0.392921 0.466538 -0.485175 0.000000 0.000000 0.000000 2.724372 -1.807677 1.017570 -3.370853 1.808979 -2.387697 -12.907851 -8.166895 8.733449 0.000000 0.000000 0.000000 3.298436 -1.820114 0.736273 -0.151143 -3.550744 -0.492588 -1.802481 0.834405 -0.827988 -36.241141 -3.135273 -57.077504 -167.615984 -81.206837 -165.567337 0.000000 0.000000 0.000000 4.917044 -1.165000 1.188281 0.716736 -7.493484 12.083154 -0.612952 3.570707 -0.389154 -47.607791 17.312211 54.563967 -175.154245 59.393945 174.309952 0.000000 0.000000 0.000000 
